<svg width="130" height="130" viewBox="0 0 130 130" fill="none" xmlns="http://www.w3.org/2000/svg">
<rect width="130" height="130" rx="10" fill="white"/>
<path d="M16.9815 64V37.8182H27.8991C29.8594 37.8182 31.5 38.0952 32.821 38.6491C34.1506 39.2031 35.1477 39.9787 35.8125 40.9759C36.4858 41.973 36.8224 43.1278 36.8224 44.4403C36.8224 45.4375 36.6136 46.3281 36.196 47.1122C35.7784 47.8878 35.2031 48.5312 34.4702 49.0426C33.7372 49.554 32.8892 49.9119 31.9261 50.1165V50.3722C32.983 50.4233 33.9588 50.7088 34.8537 51.2287C35.7571 51.7486 36.4815 52.473 37.027 53.402C37.5724 54.3224 37.8452 55.4134 37.8452 56.6747C37.8452 58.081 37.4872 59.3381 36.7713 60.446C36.0554 61.5455 35.0199 62.4148 33.6648 63.054C32.3097 63.6847 30.6648 64 28.7301 64H16.9815ZM23.3097 58.8991H27.2216C28.5938 58.8991 29.6037 58.6392 30.2514 58.1193C30.9077 57.5994 31.2358 56.875 31.2358 55.946C31.2358 55.2727 31.0781 54.6932 30.7628 54.2074C30.4474 53.7131 30 53.3338 29.4205 53.0696C28.8409 52.7969 28.1463 52.6605 27.3366 52.6605H23.3097V58.8991ZM23.3097 48.5824H26.8125C27.5028 48.5824 28.1165 48.4673 28.6534 48.2372C29.1903 48.0071 29.608 47.6747 29.9062 47.2401C30.2131 46.8054 30.3665 46.2812 30.3665 45.6676C30.3665 44.7898 30.0554 44.0994 29.4332 43.5966C28.8111 43.0938 27.9716 42.8423 26.9148 42.8423H23.3097V48.5824ZM50.0668 64.3707C48.0128 64.3707 46.2401 63.9659 44.7486 63.1562C43.2656 62.3381 42.1236 61.1747 41.3224 59.6662C40.5298 58.1491 40.1335 56.3466 40.1335 54.2585C40.1335 52.2301 40.5341 50.4574 41.3352 48.9403C42.1364 47.4148 43.2656 46.2301 44.723 45.3864C46.1804 44.5341 47.8977 44.108 49.875 44.108C51.2727 44.108 52.5511 44.3253 53.7102 44.7599C54.8693 45.1946 55.8707 45.8381 56.7145 46.6903C57.5582 47.5426 58.2145 48.5952 58.6832 49.848C59.152 51.0923 59.3864 52.5199 59.3864 54.1307V55.6903H42.3196V52.0597H53.5696C53.5611 51.3949 53.4034 50.8026 53.0966 50.2827C52.7898 49.7628 52.3679 49.358 51.831 49.0682C51.3026 48.7699 50.6932 48.6207 50.0028 48.6207C49.304 48.6207 48.6776 48.7784 48.1236 49.0938C47.5696 49.4006 47.1307 49.8224 46.8068 50.3594C46.483 50.8878 46.3125 51.4886 46.2955 52.1619V55.8565C46.2955 56.6577 46.4531 57.3608 46.7685 57.9659C47.0838 58.5625 47.5312 59.027 48.1108 59.3594C48.6903 59.6918 49.3807 59.858 50.1818 59.858C50.7358 59.858 51.2386 59.7812 51.6903 59.6278C52.142 59.4744 52.5298 59.2486 52.8537 58.9503C53.1776 58.652 53.4205 58.2855 53.5824 57.8509L59.3224 58.017C59.0838 59.304 58.5597 60.4247 57.75 61.3793C56.9489 62.3253 55.8963 63.0625 54.5923 63.5909C53.2884 64.1108 51.7798 64.3707 50.0668 64.3707ZM68.8306 52.8011V64H62.5792V44.3636H68.5238V47.9688H68.7411C69.1758 46.767 69.9173 45.8253 70.9656 45.1435C72.0138 44.4531 73.2624 44.108 74.7113 44.108C76.092 44.108 77.2894 44.419 78.3036 45.0412C79.3264 45.6548 80.119 46.5156 80.6815 47.6236C81.2525 48.723 81.5337 50.0099 81.5252 51.4844V64H75.2738V52.7116C75.2823 51.6207 75.0053 50.7685 74.4428 50.1548C73.8888 49.5412 73.1175 49.2344 72.1289 49.2344C71.4727 49.2344 70.8931 49.3793 70.3903 49.669C69.896 49.9503 69.5124 50.3551 69.2397 50.8835C68.9755 51.4119 68.8391 52.0511 68.8306 52.8011ZM85.3956 64V44.3636H91.647V64H85.3956ZM88.5277 42.0753C87.6499 42.0753 86.8956 41.7855 86.2649 41.206C85.6342 40.6179 85.3189 39.9105 85.3189 39.0838C85.3189 38.2656 85.6342 37.5668 86.2649 36.9872C86.8956 36.3991 87.6499 36.1051 88.5277 36.1051C89.4141 36.1051 90.1683 36.3991 90.7905 36.9872C91.4212 37.5668 91.7365 38.2656 91.7365 39.0838C91.7365 39.9105 91.4212 40.6179 90.7905 41.206C90.1683 41.7855 89.4141 42.0753 88.5277 42.0753Z" fill="#6C5DD3"/>
<path d="M67.392 66.8182V93H63.5696V66.8182H67.392ZM80.8058 93.3963C78.9648 93.3963 77.3583 92.9744 75.9862 92.1307C74.614 91.2869 73.5487 90.1065 72.7901 88.5895C72.0316 87.0724 71.6523 85.2997 71.6523 83.2713C71.6523 81.2344 72.0316 79.4531 72.7901 77.9276C73.5487 76.402 74.614 75.2173 75.9862 74.3736C77.3583 73.5298 78.9648 73.108 80.8058 73.108C82.6467 73.108 84.2532 73.5298 85.6254 74.3736C86.9975 75.2173 88.0629 76.402 88.8214 77.9276C89.5799 79.4531 89.9592 81.2344 89.9592 83.2713C89.9592 85.2997 89.5799 87.0724 88.8214 88.5895C88.0629 90.1065 86.9975 91.2869 85.6254 92.1307C84.2532 92.9744 82.6467 93.3963 80.8058 93.3963ZM80.8185 90.1875C82.0117 90.1875 83.0004 89.8722 83.7844 89.2415C84.5685 88.6108 85.1481 87.7713 85.5231 86.723C85.9066 85.6747 86.0984 84.5199 86.0984 83.2585C86.0984 82.0057 85.9066 80.8551 85.5231 79.8068C85.1481 78.75 84.5685 77.902 83.7844 77.2628C83.0004 76.6236 82.0117 76.304 80.8185 76.304C79.6168 76.304 78.6197 76.6236 77.8271 77.2628C77.043 77.902 76.4592 78.75 76.0756 79.8068C75.7006 80.8551 75.5131 82.0057 75.5131 83.2585C75.5131 84.5199 75.7006 85.6747 76.0756 86.723C76.4592 87.7713 77.043 88.6108 77.8271 89.2415C78.6197 89.8722 79.6168 90.1875 80.8185 90.1875ZM102.459 100.773C100.899 100.773 99.5568 100.568 98.4318 100.159C97.3153 99.75 96.4034 99.2088 95.696 98.5355C94.9886 97.8622 94.4602 97.125 94.1108 96.3239L97.3963 94.9688C97.6264 95.3438 97.9332 95.7401 98.3168 96.1577C98.7088 96.5838 99.2372 96.946 99.902 97.2443C100.575 97.5426 101.44 97.6918 102.497 97.6918C103.946 97.6918 105.143 97.3381 106.089 96.6307C107.036 95.9318 107.509 94.8153 107.509 93.2812V89.4205H107.266C107.036 89.8381 106.703 90.3026 106.268 90.8139C105.842 91.3253 105.254 91.7685 104.504 92.1435C103.754 92.5185 102.778 92.706 101.577 92.706C100.026 92.706 98.6278 92.3437 97.3835 91.6193C96.1477 90.8864 95.1676 89.8082 94.4432 88.3849C93.7273 86.9531 93.3693 85.1932 93.3693 83.1051C93.3693 81.017 93.723 79.2273 94.4304 77.7358C95.1463 76.2443 96.1264 75.1023 97.3707 74.3097C98.6151 73.5085 100.026 73.108 101.602 73.108C102.821 73.108 103.805 73.3125 104.555 73.7216C105.305 74.1222 105.889 74.5909 106.307 75.1278C106.733 75.6648 107.061 76.1378 107.291 76.5469H107.572V73.3636H111.318V93.4347C111.318 95.1222 110.926 96.5071 110.142 97.5895C109.358 98.6719 108.297 99.473 106.959 99.9929C105.629 100.513 104.129 100.773 102.459 100.773ZM102.42 89.5355C103.52 89.5355 104.449 89.2798 105.207 88.7685C105.974 88.2486 106.554 87.5071 106.946 86.544C107.347 85.5724 107.547 84.4091 107.547 83.054C107.547 81.733 107.351 80.5696 106.959 79.5639C106.567 78.5582 105.991 77.7741 105.233 77.2116C104.474 76.6406 103.537 76.3551 102.42 76.3551C101.27 76.3551 100.311 76.6534 99.544 77.25C98.777 77.8381 98.1974 78.6392 97.8054 79.6534C97.4219 80.6676 97.2301 81.8011 97.2301 83.054C97.2301 84.3409 97.4261 85.4702 97.8182 86.4418C98.2102 87.4134 98.7898 88.1719 99.5568 88.7173C100.332 89.2628 101.287 89.5355 102.42 89.5355Z" fill="#6C5DD3"/>
</svg>
