<svg width="40" height="40" viewBox="0 0 40 40" fill="none" xmlns="http://www.w3.org/2000/svg">
<rect width="40" height="40" rx="10" fill="white"/>
<path d="M3.66051 20V11.2727H7.29972C7.95313 11.2727 8.5 11.3651 8.94034 11.5497C9.38352 11.7344 9.71591 11.9929 9.9375 12.3253C10.1619 12.6577 10.2741 13.0426 10.2741 13.4801C10.2741 13.8125 10.2045 14.1094 10.0653 14.3707C9.92614 14.6293 9.73438 14.8437 9.49006 15.0142C9.24574 15.1847 8.96307 15.304 8.64205 15.3722V15.4574C8.99432 15.4744 9.3196 15.5696 9.6179 15.7429C9.91903 15.9162 10.1605 16.1577 10.3423 16.4673C10.5241 16.7741 10.6151 17.1378 10.6151 17.5582C10.6151 18.027 10.4957 18.446 10.2571 18.8153C10.0185 19.1818 9.6733 19.4716 9.22159 19.6847C8.76989 19.8949 8.22159 20 7.5767 20H3.66051ZM5.76989 18.2997H7.07386C7.53125 18.2997 7.8679 18.2131 8.08381 18.0398C8.30256 17.8665 8.41193 17.625 8.41193 17.3153C8.41193 17.0909 8.35938 16.8977 8.25426 16.7358C8.14915 16.571 8 16.4446 7.80682 16.3565C7.61364 16.2656 7.3821 16.2202 7.11222 16.2202H5.76989V18.2997ZM5.76989 14.8608H6.9375C7.16761 14.8608 7.37216 14.8224 7.55114 14.7457C7.73011 14.669 7.86932 14.5582 7.96875 14.4134C8.07102 14.2685 8.12216 14.0937 8.12216 13.8892C8.12216 13.5966 8.01847 13.3665 7.81108 13.1989C7.60369 13.0312 7.32386 12.9474 6.97159 12.9474H5.76989V14.8608ZM14.6889 20.1236C14.0043 20.1236 13.4134 19.9886 12.9162 19.7188C12.4219 19.446 12.0412 19.0582 11.7741 18.5554C11.5099 18.0497 11.3778 17.4489 11.3778 16.7528C11.3778 16.0767 11.5114 15.4858 11.7784 14.9801C12.0455 14.4716 12.4219 14.0767 12.9077 13.7955C13.3935 13.5114 13.9659 13.3693 14.625 13.3693C15.0909 13.3693 15.517 13.4418 15.9034 13.5866C16.2898 13.7315 16.6236 13.946 16.9048 14.2301C17.1861 14.5142 17.4048 14.8651 17.5611 15.2827C17.7173 15.6974 17.7955 16.1733 17.7955 16.7102V17.2301H12.1065V16.0199H15.8565C15.8537 15.7983 15.8011 15.6009 15.6989 15.4276C15.5966 15.2543 15.456 15.1193 15.277 15.0227C15.1009 14.9233 14.8977 14.8736 14.6676 14.8736C14.4347 14.8736 14.2259 14.9261 14.0412 15.0312C13.8565 15.1335 13.7102 15.2741 13.6023 15.4531C13.4943 15.6293 13.4375 15.8295 13.4318 16.054V17.2855C13.4318 17.5526 13.4844 17.7869 13.5895 17.9886C13.6946 18.1875 13.8438 18.3423 14.0369 18.4531C14.2301 18.5639 14.4602 18.6193 14.7273 18.6193C14.9119 18.6193 15.0795 18.5937 15.2301 18.5426C15.3807 18.4915 15.5099 18.4162 15.6179 18.3168C15.7259 18.2173 15.8068 18.0952 15.8608 17.9503L17.7741 18.0057C17.6946 18.4347 17.5199 18.8082 17.25 19.1264C16.983 19.4418 16.6321 19.6875 16.1974 19.8636C15.7628 20.0369 15.2599 20.1236 14.6889 20.1236ZM20.9435 16.267V20H18.8597V13.4545H20.8413V14.6562H20.9137C21.0586 14.2557 21.3058 13.9418 21.6552 13.7145C22.0046 13.4844 22.4208 13.3693 22.9038 13.3693C23.364 13.3693 23.7631 13.473 24.1012 13.6804C24.4421 13.8849 24.7063 14.1719 24.8938 14.5412C25.0842 14.9077 25.1779 15.3366 25.1751 15.8281V20H23.0913V16.2372C23.0941 15.8736 23.0018 15.5895 22.8143 15.3849C22.6296 15.1804 22.3725 15.0781 22.043 15.0781C21.8242 15.0781 21.631 15.1264 21.4634 15.223C21.2987 15.3168 21.1708 15.4517 21.0799 15.6278C20.9918 15.804 20.9464 16.017 20.9435 16.267ZM26.4652 20V13.4545H28.549V20H26.4652ZM27.5092 12.6918C27.2166 12.6918 26.9652 12.5952 26.755 12.402C26.5447 12.206 26.4396 11.9702 26.4396 11.6946C26.4396 11.4219 26.5447 11.1889 26.755 10.9957C26.9652 10.7997 27.2166 10.7017 27.5092 10.7017C27.8047 10.7017 28.0561 10.7997 28.2635 10.9957C28.4737 11.1889 28.5788 11.4219 28.5788 11.6946C28.5788 11.9702 28.4737 12.206 28.2635 12.402C28.0561 12.5952 27.8047 12.6918 27.5092 12.6918Z" fill="#6C5DD3"/>
<path d="M20.1307 20.2727V29H18.8565V20.2727H20.1307ZM24.6019 29.1321C23.9883 29.1321 23.4528 28.9915 22.9954 28.7102C22.538 28.429 22.1829 28.0355 21.93 27.5298C21.6772 27.0241 21.5508 26.4332 21.5508 25.7571C21.5508 25.0781 21.6772 24.4844 21.93 23.9759C22.1829 23.4673 22.538 23.0724 22.9954 22.7912C23.4528 22.5099 23.9883 22.3693 24.6019 22.3693C25.2156 22.3693 25.7511 22.5099 26.2085 22.7912C26.6658 23.0724 27.021 23.4673 27.2738 23.9759C27.5266 24.4844 27.6531 25.0781 27.6531 25.7571C27.6531 26.4332 27.5266 27.0241 27.2738 27.5298C27.021 28.0355 26.6658 28.429 26.2085 28.7102C25.7511 28.9915 25.2156 29.1321 24.6019 29.1321ZM24.6062 28.0625C25.0039 28.0625 25.3335 27.9574 25.5948 27.7472C25.8562 27.5369 26.0494 27.2571 26.1744 26.9077C26.3022 26.5582 26.3661 26.1733 26.3661 25.7528C26.3661 25.3352 26.3022 24.9517 26.1744 24.6023C26.0494 24.25 25.8562 23.9673 25.5948 23.7543C25.3335 23.5412 25.0039 23.4347 24.6062 23.4347C24.2056 23.4347 23.8732 23.5412 23.609 23.7543C23.3477 23.9673 23.1531 24.25 23.0252 24.6023C22.9002 24.9517 22.8377 25.3352 22.8377 25.7528C22.8377 26.1733 22.9002 26.5582 23.0252 26.9077C23.1531 27.2571 23.3477 27.5369 23.609 27.7472C23.8732 27.9574 24.2056 28.0625 24.6062 28.0625ZM31.8196 31.5909C31.2997 31.5909 30.8523 31.5227 30.4773 31.3864C30.1051 31.25 29.8011 31.0696 29.5653 30.8452C29.3295 30.6207 29.1534 30.375 29.0369 30.108L30.1321 29.6562C30.2088 29.7812 30.3111 29.9134 30.4389 30.0526C30.5696 30.1946 30.7457 30.3153 30.9673 30.4148C31.1918 30.5142 31.4801 30.5639 31.8324 30.5639C32.3153 30.5639 32.7145 30.446 33.0298 30.2102C33.3452 29.9773 33.5028 29.6051 33.5028 29.0938V27.8068H33.4219C33.3452 27.946 33.2344 28.1009 33.0895 28.2713C32.9474 28.4418 32.7514 28.5895 32.5014 28.7145C32.2514 28.8395 31.9261 28.902 31.5256 28.902C31.0085 28.902 30.5426 28.7812 30.1278 28.5398C29.7159 28.2955 29.3892 27.9361 29.1477 27.4616C28.9091 26.9844 28.7898 26.3977 28.7898 25.7017C28.7898 25.0057 28.9077 24.4091 29.1435 23.9119C29.3821 23.4148 29.7088 23.0341 30.1236 22.7699C30.5384 22.5028 31.0085 22.3693 31.5341 22.3693C31.9403 22.3693 32.2685 22.4375 32.5185 22.5739C32.7685 22.7074 32.9631 22.8636 33.1023 23.0426C33.2443 23.2216 33.3537 23.3793 33.4304 23.5156H33.5241V22.4545H34.7727V29.1449C34.7727 29.7074 34.642 30.169 34.3807 30.5298C34.1193 30.8906 33.7656 31.1577 33.3196 31.331C32.8764 31.5043 32.3764 31.5909 31.8196 31.5909ZM31.8068 27.8452C32.1733 27.8452 32.483 27.7599 32.7358 27.5895C32.9915 27.4162 33.1847 27.169 33.3153 26.848C33.4489 26.5241 33.5156 26.1364 33.5156 25.6847C33.5156 25.2443 33.4503 24.8565 33.3196 24.5213C33.1889 24.1861 32.9972 23.9247 32.7443 23.7372C32.4915 23.5469 32.179 23.4517 31.8068 23.4517C31.4233 23.4517 31.1037 23.5511 30.848 23.75C30.5923 23.946 30.3991 24.2131 30.2685 24.5511C30.1406 24.8892 30.0767 25.267 30.0767 25.6847C30.0767 26.1136 30.142 26.4901 30.2727 26.8139C30.4034 27.1378 30.5966 27.3906 30.8523 27.5724C31.1108 27.7543 31.429 27.8452 31.8068 27.8452Z" fill="#6C5DD3"/>
</svg>
