<svg width="33" height="24" viewBox="0 0 33 24" fill="none" xmlns="http://www.w3.org/2000/svg">
<path d="M0.660511 12V3.27273H4.29972C4.95313 3.27273 5.5 3.36506 5.94034 3.54972C6.38352 3.73437 6.71591 3.9929 6.9375 4.32528C7.16193 4.65767 7.27415 5.04261 7.27415 5.48011C7.27415 5.8125 7.20455 6.10938 7.06534 6.37074C6.92614 6.62926 6.73438 6.84375 6.49006 7.0142C6.24574 7.18466 5.96307 7.30398 5.64205 7.37216V7.45739C5.99432 7.47443 6.3196 7.5696 6.6179 7.7429C6.91903 7.91619 7.16051 8.15767 7.34233 8.46733C7.52415 8.77415 7.61506 9.13778 7.61506 9.55824C7.61506 10.027 7.49574 10.446 7.2571 10.8153C7.01847 11.1818 6.6733 11.4716 6.22159 11.6847C5.76989 11.8949 5.22159 12 4.5767 12H0.660511ZM2.76989 10.2997H4.07386C4.53125 10.2997 4.8679 10.2131 5.08381 10.0398C5.30256 9.86648 5.41193 9.625 5.41193 9.31534C5.41193 9.09091 5.35938 8.89773 5.25426 8.7358C5.14915 8.57102 5 8.4446 4.80682 8.35653C4.61364 8.26562 4.3821 8.22017 4.11222 8.22017H2.76989V10.2997ZM2.76989 6.8608H3.9375C4.16761 6.8608 4.37216 6.82244 4.55114 6.74574C4.73011 6.66903 4.86932 6.55824 4.96875 6.41335C5.07102 6.26847 5.12216 6.09375 5.12216 5.8892C5.12216 5.59659 5.01847 5.36648 4.81108 5.19886C4.60369 5.03125 4.32386 4.94744 3.97159 4.94744H2.76989V6.8608ZM11.6889 12.1236C11.0043 12.1236 10.4134 11.9886 9.91619 11.7188C9.42188 11.446 9.04119 11.0582 8.77415 10.5554C8.50994 10.0497 8.37784 9.44886 8.37784 8.75284C8.37784 8.0767 8.51136 7.4858 8.77841 6.98011C9.04545 6.47159 9.42188 6.0767 9.90767 5.79545C10.3935 5.51136 10.9659 5.36932 11.625 5.36932C12.0909 5.36932 12.517 5.44176 12.9034 5.58665C13.2898 5.73153 13.6236 5.94602 13.9048 6.23011C14.1861 6.5142 14.4048 6.86506 14.5611 7.28267C14.7173 7.69744 14.7955 8.1733 14.7955 8.71023V9.23011H9.10653V8.01989H12.8565C12.8537 7.7983 12.8011 7.60085 12.6989 7.42756C12.5966 7.25426 12.456 7.11932 12.277 7.02273C12.1009 6.9233 11.8977 6.87358 11.6676 6.87358C11.4347 6.87358 11.2259 6.92614 11.0412 7.03125C10.8565 7.13352 10.7102 7.27415 10.6023 7.45312C10.4943 7.62926 10.4375 7.82955 10.4318 8.05398V9.28551C10.4318 9.55256 10.4844 9.78693 10.5895 9.98864C10.6946 10.1875 10.8438 10.3423 11.0369 10.4531C11.2301 10.5639 11.4602 10.6193 11.7273 10.6193C11.9119 10.6193 12.0795 10.5937 12.2301 10.5426C12.3807 10.4915 12.5099 10.4162 12.6179 10.3168C12.7259 10.2173 12.8068 10.0952 12.8608 9.95028L14.7741 10.0057C14.6946 10.4347 14.5199 10.8082 14.25 11.1264C13.983 11.4418 13.6321 11.6875 13.1974 11.8636C12.7628 12.0369 12.2599 12.1236 11.6889 12.1236ZM17.9435 8.26705V12H15.8597V5.45455H17.8413V6.65625H17.9137C18.0586 6.25568 18.3058 5.94176 18.6552 5.71449C19.0046 5.48438 19.4208 5.36932 19.9038 5.36932C20.364 5.36932 20.7631 5.47301 21.1012 5.6804C21.4421 5.88494 21.7063 6.17187 21.8938 6.54119C22.0842 6.90767 22.1779 7.33665 22.1751 7.82812V12H20.0913V8.23722C20.0941 7.87358 20.0018 7.58949 19.8143 7.38494C19.6296 7.1804 19.3725 7.07812 19.043 7.07812C18.8242 7.07812 18.631 7.12642 18.4634 7.22301C18.2987 7.31676 18.1708 7.4517 18.0799 7.62784C17.9918 7.80398 17.9464 8.01705 17.9435 8.26705ZM23.4652 12V5.45455H25.549V12H23.4652ZM24.5092 4.69176C24.2166 4.69176 23.9652 4.59517 23.755 4.40199C23.5447 4.20597 23.4396 3.97017 23.4396 3.6946C23.4396 3.42187 23.5447 3.18892 23.755 2.99574C23.9652 2.79972 24.2166 2.7017 24.5092 2.7017C24.8047 2.7017 25.0561 2.79972 25.2635 2.99574C25.4737 3.18892 25.5788 3.42187 25.5788 3.6946C25.5788 3.97017 25.4737 4.20597 25.2635 4.40199C25.0561 4.59517 24.8047 4.69176 24.5092 4.69176Z" fill="#6C5DD3"/>
<path d="M17.1307 12.2727V21H15.8565V12.2727H17.1307ZM21.6019 21.1321C20.9883 21.1321 20.4528 20.9915 19.9954 20.7102C19.538 20.429 19.1829 20.0355 18.93 19.5298C18.6772 19.0241 18.5508 18.4332 18.5508 17.7571C18.5508 17.0781 18.6772 16.4844 18.93 15.9759C19.1829 15.4673 19.538 15.0724 19.9954 14.7912C20.4528 14.5099 20.9883 14.3693 21.6019 14.3693C22.2156 14.3693 22.7511 14.5099 23.2085 14.7912C23.6658 15.0724 24.021 15.4673 24.2738 15.9759C24.5266 16.4844 24.6531 17.0781 24.6531 17.7571C24.6531 18.4332 24.5266 19.0241 24.2738 19.5298C24.021 20.0355 23.6658 20.429 23.2085 20.7102C22.7511 20.9915 22.2156 21.1321 21.6019 21.1321ZM21.6062 20.0625C22.0039 20.0625 22.3335 19.9574 22.5948 19.7472C22.8562 19.5369 23.0494 19.2571 23.1744 18.9077C23.3022 18.5582 23.3661 18.1733 23.3661 17.7528C23.3661 17.3352 23.3022 16.9517 23.1744 16.6023C23.0494 16.25 22.8562 15.9673 22.5948 15.7543C22.3335 15.5412 22.0039 15.4347 21.6062 15.4347C21.2056 15.4347 20.8732 15.5412 20.609 15.7543C20.3477 15.9673 20.1531 16.25 20.0252 16.6023C19.9002 16.9517 19.8377 17.3352 19.8377 17.7528C19.8377 18.1733 19.9002 18.5582 20.0252 18.9077C20.1531 19.2571 20.3477 19.5369 20.609 19.7472C20.8732 19.9574 21.2056 20.0625 21.6062 20.0625ZM28.8196 23.5909C28.2997 23.5909 27.8523 23.5227 27.4773 23.3864C27.1051 23.25 26.8011 23.0696 26.5653 22.8452C26.3295 22.6207 26.1534 22.375 26.0369 22.108L27.1321 21.6562C27.2088 21.7812 27.3111 21.9134 27.4389 22.0526C27.5696 22.1946 27.7457 22.3153 27.9673 22.4148C28.1918 22.5142 28.4801 22.5639 28.8324 22.5639C29.3153 22.5639 29.7145 22.446 30.0298 22.2102C30.3452 21.9773 30.5028 21.6051 30.5028 21.0938V19.8068H30.4219C30.3452 19.946 30.2344 20.1009 30.0895 20.2713C29.9474 20.4418 29.7514 20.5895 29.5014 20.7145C29.2514 20.8395 28.9261 20.902 28.5256 20.902C28.0085 20.902 27.5426 20.7812 27.1278 20.5398C26.7159 20.2955 26.3892 19.9361 26.1477 19.4616C25.9091 18.9844 25.7898 18.3977 25.7898 17.7017C25.7898 17.0057 25.9077 16.4091 26.1435 15.9119C26.3821 15.4148 26.7088 15.0341 27.1236 14.7699C27.5384 14.5028 28.0085 14.3693 28.5341 14.3693C28.9403 14.3693 29.2685 14.4375 29.5185 14.5739C29.7685 14.7074 29.9631 14.8636 30.1023 15.0426C30.2443 15.2216 30.3537 15.3793 30.4304 15.5156H30.5241V14.4545H31.7727V21.1449C31.7727 21.7074 31.642 22.169 31.3807 22.5298C31.1193 22.8906 30.7656 23.1577 30.3196 23.331C29.8764 23.5043 29.3764 23.5909 28.8196 23.5909ZM28.8068 19.8452C29.1733 19.8452 29.483 19.7599 29.7358 19.5895C29.9915 19.4162 30.1847 19.169 30.3153 18.848C30.4489 18.5241 30.5156 18.1364 30.5156 17.6847C30.5156 17.2443 30.4503 16.8565 30.3196 16.5213C30.1889 16.1861 29.9972 15.9247 29.7443 15.7372C29.4915 15.5469 29.179 15.4517 28.8068 15.4517C28.4233 15.4517 28.1037 15.5511 27.848 15.75C27.5923 15.946 27.3991 16.2131 27.2685 16.5511C27.1406 16.8892 27.0767 17.267 27.0767 17.6847C27.0767 18.1136 27.142 18.4901 27.2727 18.8139C27.4034 19.1378 27.5966 19.3906 27.8523 19.5724C28.1108 19.7543 28.429 19.8452 28.8068 19.8452Z" fill="#6C5DD3"/>
</svg>
