<svg width="99" height="73" viewBox="0 0 99 73" fill="none" xmlns="http://www.w3.org/2000/svg">
<path d="M1.98153 35V8.81818H12.8991C14.8594 8.81818 16.5 9.09517 17.821 9.64915C19.1506 10.2031 20.1477 10.9787 20.8125 11.9759C21.4858 12.973 21.8224 14.1278 21.8224 15.4403C21.8224 16.4375 21.6136 17.3281 21.196 18.1122C20.7784 18.8878 20.2031 19.5312 19.4702 20.0426C18.7372 20.554 17.8892 20.9119 16.9261 21.1165V21.3722C17.983 21.4233 18.9588 21.7088 19.8537 22.2287C20.7571 22.7486 21.4815 23.473 22.027 24.402C22.5724 25.3224 22.8452 26.4134 22.8452 27.6747C22.8452 29.081 22.4872 30.3381 21.7713 31.446C21.0554 32.5455 20.0199 33.4148 18.6648 34.054C17.3097 34.6847 15.6648 35 13.7301 35H1.98153ZM8.30966 29.8991H12.2216C13.5938 29.8991 14.6037 29.6392 15.2514 29.1193C15.9077 28.5994 16.2358 27.875 16.2358 26.946C16.2358 26.2727 16.0781 25.6932 15.7628 25.2074C15.4474 24.7131 15 24.3338 14.4205 24.0696C13.8409 23.7969 13.1463 23.6605 12.3366 23.6605H8.30966V29.8991ZM8.30966 19.5824H11.8125C12.5028 19.5824 13.1165 19.4673 13.6534 19.2372C14.1903 19.0071 14.608 18.6747 14.9062 18.2401C15.2131 17.8054 15.3665 17.2812 15.3665 16.6676C15.3665 15.7898 15.0554 15.0994 14.4332 14.5966C13.8111 14.0938 12.9716 13.8423 11.9148 13.8423H8.30966V19.5824ZM35.0668 35.3707C33.0128 35.3707 31.2401 34.9659 29.7486 34.1562C28.2656 33.3381 27.1236 32.1747 26.3224 30.6662C25.5298 29.1491 25.1335 27.3466 25.1335 25.2585C25.1335 23.2301 25.5341 21.4574 26.3352 19.9403C27.1364 18.4148 28.2656 17.2301 29.723 16.3864C31.1804 15.5341 32.8977 15.108 34.875 15.108C36.2727 15.108 37.5511 15.3253 38.7102 15.7599C39.8693 16.1946 40.8707 16.8381 41.7145 17.6903C42.5582 18.5426 43.2145 19.5952 43.6832 20.848C44.152 22.0923 44.3864 23.5199 44.3864 25.1307V26.6903H27.3196V23.0597H38.5696C38.5611 22.3949 38.4034 21.8026 38.0966 21.2827C37.7898 20.7628 37.3679 20.358 36.831 20.0682C36.3026 19.7699 35.6932 19.6207 35.0028 19.6207C34.304 19.6207 33.6776 19.7784 33.1236 20.0938C32.5696 20.4006 32.1307 20.8224 31.8068 21.3594C31.483 21.8878 31.3125 22.4886 31.2955 23.1619V26.8565C31.2955 27.6577 31.4531 28.3608 31.7685 28.9659C32.0838 29.5625 32.5312 30.027 33.1108 30.3594C33.6903 30.6918 34.3807 30.858 35.1818 30.858C35.7358 30.858 36.2386 30.7812 36.6903 30.6278C37.142 30.4744 37.5298 30.2486 37.8537 29.9503C38.1776 29.652 38.4205 29.2855 38.5824 28.8509L44.3224 29.017C44.0838 30.304 43.5597 31.4247 42.75 32.3793C41.9489 33.3253 40.8963 34.0625 39.5923 34.5909C38.2884 35.1108 36.7798 35.3707 35.0668 35.3707ZM53.8306 23.8011V35H47.5792V15.3636H53.5238V18.9688H53.7411C54.1758 17.767 54.9173 16.8253 55.9656 16.1435C57.0138 15.4531 58.2624 15.108 59.7113 15.108C61.092 15.108 62.2894 15.419 63.3036 16.0412C64.3264 16.6548 65.119 17.5156 65.6815 18.6236C66.2525 19.723 66.5337 21.0099 66.5252 22.4844V35H60.2738V23.7116C60.2823 22.6207 60.0053 21.7685 59.4428 21.1548C58.8888 20.5412 58.1175 20.2344 57.1289 20.2344C56.4727 20.2344 55.8931 20.3793 55.3903 20.669C54.896 20.9503 54.5124 21.3551 54.2397 21.8835C53.9755 22.4119 53.8391 23.0511 53.8306 23.8011ZM70.3956 35V15.3636H76.647V35H70.3956ZM73.5277 13.0753C72.6499 13.0753 71.8956 12.7855 71.2649 12.206C70.6342 11.6179 70.3189 10.9105 70.3189 10.0838C70.3189 9.26562 70.6342 8.56676 71.2649 7.98722C71.8956 7.39915 72.6499 7.10511 73.5277 7.10511C74.4141 7.10511 75.1683 7.39915 75.7905 7.98722C76.4212 8.56676 76.7365 9.26562 76.7365 10.0838C76.7365 10.9105 76.4212 11.6179 75.7905 12.206C75.1683 12.7855 74.4141 13.0753 73.5277 13.0753Z" fill="#6C5DD3"/>
<path d="M52.392 37.8182V64H48.5696V37.8182H52.392ZM65.8058 64.3963C63.9648 64.3963 62.3583 63.9744 60.9862 63.1307C59.614 62.2869 58.5487 61.1065 57.7901 59.5895C57.0316 58.0724 56.6523 56.2997 56.6523 54.2713C56.6523 52.2344 57.0316 50.4531 57.7901 48.9276C58.5487 47.402 59.614 46.2173 60.9862 45.3736C62.3583 44.5298 63.9648 44.108 65.8058 44.108C67.6467 44.108 69.2532 44.5298 70.6254 45.3736C71.9975 46.2173 73.0629 47.402 73.8214 48.9276C74.5799 50.4531 74.9592 52.2344 74.9592 54.2713C74.9592 56.2997 74.5799 58.0724 73.8214 59.5895C73.0629 61.1065 71.9975 62.2869 70.6254 63.1307C69.2532 63.9744 67.6467 64.3963 65.8058 64.3963ZM65.8185 61.1875C67.0117 61.1875 68.0004 60.8722 68.7844 60.2415C69.5685 59.6108 70.1481 58.7713 70.5231 57.723C70.9066 56.6747 71.0984 55.5199 71.0984 54.2585C71.0984 53.0057 70.9066 51.8551 70.5231 50.8068C70.1481 49.75 69.5685 48.902 68.7844 48.2628C68.0004 47.6236 67.0117 47.304 65.8185 47.304C64.6168 47.304 63.6197 47.6236 62.8271 48.2628C62.043 48.902 61.4592 49.75 61.0756 50.8068C60.7006 51.8551 60.5131 53.0057 60.5131 54.2585C60.5131 55.5199 60.7006 56.6747 61.0756 57.723C61.4592 58.7713 62.043 59.6108 62.8271 60.2415C63.6197 60.8722 64.6168 61.1875 65.8185 61.1875ZM87.4588 71.7727C85.8991 71.7727 84.5568 71.5682 83.4318 71.1591C82.3153 70.75 81.4034 70.2088 80.696 69.5355C79.9886 68.8622 79.4602 68.125 79.1108 67.3239L82.3963 65.9688C82.6264 66.3438 82.9332 66.7401 83.3168 67.1577C83.7088 67.5838 84.2372 67.946 84.902 68.2443C85.5753 68.5426 86.4403 68.6918 87.4972 68.6918C88.946 68.6918 90.1435 68.3381 91.0895 67.6307C92.0355 66.9318 92.5085 65.8153 92.5085 64.2812V60.4205H92.2656C92.0355 60.8381 91.7031 61.3026 91.2685 61.8139C90.8423 62.3253 90.2543 62.7685 89.5043 63.1435C88.7543 63.5185 87.7784 63.706 86.5767 63.706C85.0256 63.706 83.6278 63.3437 82.3835 62.6193C81.1477 61.8864 80.1676 60.8082 79.4432 59.3849C78.7273 57.9531 78.3693 56.1932 78.3693 54.1051C78.3693 52.017 78.723 50.2273 79.4304 48.7358C80.1463 47.2443 81.1264 46.1023 82.3707 45.3097C83.6151 44.5085 85.0256 44.108 86.6023 44.108C87.821 44.108 88.8054 44.3125 89.5554 44.7216C90.3054 45.1222 90.8892 45.5909 91.3068 46.1278C91.733 46.6648 92.0611 47.1378 92.2912 47.5469H92.5724V44.3636H96.3182V64.4347C96.3182 66.1222 95.9261 67.5071 95.142 68.5895C94.358 69.6719 93.2969 70.473 91.9588 70.9929C90.6293 71.5128 89.1293 71.7727 87.4588 71.7727ZM87.4205 60.5355C88.5199 60.5355 89.4489 60.2798 90.2074 59.7685C90.9744 59.2486 91.554 58.5071 91.946 57.544C92.3466 56.5724 92.5469 55.4091 92.5469 54.054C92.5469 52.733 92.3509 51.5696 91.9588 50.5639C91.5668 49.5582 90.9915 48.7741 90.233 48.2116C89.4744 47.6406 88.5369 47.3551 87.4205 47.3551C86.2699 47.3551 85.3111 47.6534 84.544 48.25C83.777 48.8381 83.1974 49.6392 82.8054 50.6534C82.4219 51.6676 82.2301 52.8011 82.2301 54.054C82.2301 55.3409 82.4261 56.4702 82.8182 57.4418C83.2102 58.4134 83.7898 59.1719 84.5568 59.7173C85.3324 60.2628 86.2869 60.5355 87.4205 60.5355Z" fill="#6C5DD3"/>
</svg>
